<svg width="19" height="16" viewBox="0 0 19 16" fill="none" xmlns="http://www.w3.org/2000/svg">
<path d="M1.42516 7.36825C1.39453 7.24543 1.39228 7.11725 1.41858 6.99343C1.44488 6.86961 1.49904 6.75341 1.57696 6.65365C1.65487 6.55389 1.75449 6.47319 1.86824 6.41767C1.982 6.36216 2.10691 6.33329 2.23349 6.33325H16.7668C16.8934 6.33329 17.0183 6.36216 17.1321 6.41767C17.2458 6.47319 17.3455 6.55389 17.4234 6.65365C17.5013 6.75341 17.5554 6.86961 17.5817 6.99343C17.608 7.11725 17.6058 7.24543 17.5752 7.36825L16.066 13.4041C15.9759 13.7647 15.7678 14.0847 15.4749 14.3135C15.182 14.5422 14.821 14.6665 14.4493 14.6666H4.55099C4.17933 14.6665 3.81836 14.5422 3.52544 14.3135C3.23251 14.0847 3.02445 13.7647 2.93433 13.4041L1.42516 7.36909V7.36825Z" stroke="white" stroke-width="2" stroke-linejoin="round"/>
<path d="M7 9.6665V11.3332" stroke="white" stroke-width="2" stroke-linecap="round"/>
<path d="M12 9.6665V11.3332" stroke="white" stroke-width="2" stroke-linecap="round"/>
<path d="M4.5 6.33325L7.83333 1.33325" stroke="white" stroke-width="2" stroke-linecap="round"/>
<path d="M14.5003 6.33325L11.167 1.33325" stroke="white" stroke-width="2" stroke-linecap="round"/>
</svg>
