<svg width="26" height="26" viewBox="0 0 26 26" fill="none" xmlns="http://www.w3.org/2000/svg">
<path d="M18.5396 0.580208C19.8083 0.638542 20.6854 0.825 21.4958 1.13958C22.2642 1.42689 22.9599 1.87999 23.5333 2.46667C24.12 3.04009 24.5731 3.73575 24.8604 4.50417C25.175 5.31562 25.3615 6.19167 25.4198 7.46042C25.4917 9.03333 25.5 9.5875 25.5 13C25.5 16.4125 25.4917 16.9667 25.4198 18.5396C25.3615 19.8083 25.175 20.6854 24.8604 21.4969C24.573 22.2649 24.1199 22.9602 23.5333 23.5333C22.9599 24.12 22.2643 24.5731 21.4958 24.8604C20.6844 25.175 19.8083 25.3615 18.5396 25.4198C16.9667 25.4917 16.4135 25.5 13 25.5C9.58646 25.5 9.03229 25.4917 7.46042 25.4198C6.19167 25.3615 5.31458 25.175 4.50312 24.8604C3.73507 24.573 3.03977 24.1199 2.46667 23.5333C1.87999 22.9599 1.42689 22.2642 1.13958 21.4958C0.825 20.6844 0.638542 19.8083 0.580208 18.5396C0.508333 16.9688 0.5 16.4146 0.5 13C0.5 9.58646 0.508333 9.03125 0.580208 7.46042C0.638542 6.19167 0.825 5.31458 1.13958 4.50417C1.42689 3.73575 1.87999 3.04009 2.46667 2.46667C3.03979 1.88012 3.73508 1.42702 4.50312 1.13958C5.31562 0.825 6.19167 0.638542 7.46042 0.580208C9.03125 0.508333 9.58542 0.5 13 0.5C16.4135 0.5 16.9688 0.508333 18.5396 0.580208ZM13 3.27813C9.625 3.27813 9.10833 3.28542 7.58646 3.35521C6.62083 3.39896 6.04167 3.52187 5.50937 3.72917C5.05625 3.90625 4.76771 4.09375 4.43021 4.43021C4.09271 4.76771 3.90521 5.05625 3.72917 5.50937C3.52292 6.04062 3.39896 6.62083 3.35521 7.58646C3.28542 9.10833 3.27813 9.625 3.27813 13C3.27813 16.375 3.28542 16.8917 3.35521 18.4135C3.39896 19.3792 3.52187 19.9583 3.72917 20.4896C3.90625 20.9438 4.09375 21.2323 4.43021 21.5698C4.76771 21.9073 5.05625 22.0948 5.50937 22.2708C6.04062 22.4771 6.62083 22.601 7.58646 22.6448C9.10938 22.7146 9.62604 22.7219 13 22.7219C16.375 22.7219 16.8906 22.7146 18.4135 22.6448C19.3792 22.601 19.9583 22.4781 20.4906 22.2708C20.9437 22.0937 21.2323 21.9062 21.5698 21.5698C21.9073 21.2323 22.0948 20.9437 22.2708 20.4906C22.4771 19.9594 22.601 19.3792 22.6448 18.4135C22.7146 16.8906 22.7219 16.374 22.7219 13C22.7219 9.62604 22.7146 9.10938 22.6448 7.58646C22.601 6.62083 22.4781 6.04167 22.2708 5.51042C22.1235 5.10113 21.8836 4.73143 21.5698 4.43021C21.2686 4.11637 20.8989 3.87643 20.4896 3.72917C19.9583 3.52292 19.3781 3.39896 18.4125 3.35521C16.8906 3.28542 16.374 3.27813 12.999 3.27813H13ZM13 19.4812C11.2811 19.4812 9.63253 18.7984 8.41706 17.5829C7.20159 16.3675 6.51875 14.7189 6.51875 13C6.51875 11.2811 7.20159 9.63253 8.41706 8.41706C9.63253 7.20159 11.2811 6.51875 13 6.51875C14.7189 6.51875 16.3675 7.20159 17.5829 8.41706C18.7984 9.63253 19.4812 11.2811 19.4812 13C19.4812 14.7189 18.7984 16.3675 17.5829 17.5829C16.3675 18.7984 14.7189 19.4812 13 19.4812ZM13 16.7042C13.9824 16.7042 14.9246 16.3139 15.6192 15.6192C16.3139 14.9246 16.7042 13.9824 16.7042 13C16.7042 12.0176 16.3139 11.0754 15.6192 10.3808C14.9246 9.68609 13.9824 9.29583 13 9.29583C12.0176 9.29583 11.0754 9.68609 10.3808 10.3808C9.68609 11.0754 9.29583 12.0176 9.29583 13C9.29583 13.9824 9.68609 14.9246 10.3808 15.6192C11.0754 16.3139 12.0176 16.7042 13 16.7042ZM19.4812 7.90729C19.1128 7.90729 18.7595 7.76094 18.499 7.50044C18.2385 7.23994 18.0922 6.88663 18.0922 6.51823C18.0922 6.14983 18.2385 5.79651 18.499 5.53601C18.7595 5.27551 19.1128 5.12917 19.4812 5.12917C19.8497 5.12917 20.203 5.27551 20.4635 5.53601C20.724 5.79651 20.8703 6.14983 20.8703 6.51823C20.8703 6.88663 20.724 7.23994 20.4635 7.50044C20.203 7.76094 19.8497 7.90729 19.4812 7.90729Z" fill="#9E9E9E"/>
</svg>
