<svg width="17" height="16" viewBox="0 0 17 16" fill="none" xmlns="http://www.w3.org/2000/svg">
<path d="M8.50057 0.083252C8.65529 0.0833346 8.80693 0.126488 8.93851 0.207879C9.07009 0.28927 9.17641 0.405685 9.24557 0.544085L11.3956 4.84242L16.1206 5.52909C16.2745 5.55144 16.4191 5.61642 16.538 5.71667C16.6569 5.81693 16.7454 5.94846 16.7934 6.09639C16.8414 6.24431 16.8471 6.40273 16.8098 6.55372C16.7725 6.70471 16.6937 6.84224 16.5822 6.95075L13.1431 10.3041L13.9164 15.0324C13.9412 15.1855 13.9229 15.3425 13.8634 15.4857C13.8039 15.6289 13.7056 15.7526 13.5797 15.843C13.4537 15.9334 13.3049 15.9869 13.1502 15.9974C12.9955 16.0079 12.8409 15.975 12.7039 15.9024L8.50057 13.6724L4.29723 15.9024C4.16019 15.975 4.00562 16.0079 3.8509 15.9974C3.69619 15.9869 3.54748 15.9334 3.42148 15.843C3.29549 15.7526 3.19723 15.6289 3.13773 15.4857C3.07824 15.3425 3.05989 15.1855 3.08473 15.0324L3.85807 10.3041L0.4189 6.95075C0.307481 6.84224 0.228654 6.70471 0.191336 6.55372C0.154018 6.40273 0.159699 6.24431 0.207736 6.09639C0.255773 5.94846 0.344249 5.81693 0.463155 5.71667C0.582061 5.61642 0.726651 5.55144 0.880567 5.52909L5.60557 4.84242L7.75557 0.544085C7.82473 0.405685 7.93105 0.28927 8.06263 0.207879C8.19421 0.126488 8.34585 0.0833346 8.50057 0.083252ZM8.50057 2.77992L6.90223 5.97659C6.84225 6.09681 6.75409 6.20074 6.64526 6.27953C6.53644 6.35832 6.41017 6.40963 6.27723 6.42909L2.79057 6.93575L5.33223 9.41325C5.42829 9.50683 5.50033 9.62221 5.54226 9.74959C5.58419 9.87697 5.59476 10.0126 5.57307 10.1449L5.00057 13.6424L8.10974 11.9924C8.23009 11.9285 8.36429 11.8951 8.50057 11.8951C8.63684 11.8951 8.77104 11.9285 8.8914 11.9924L12.0006 13.6424L11.4281 10.1449C11.4065 10.0127 11.4172 9.87726 11.4591 9.75004C11.501 9.62282 11.573 9.50758 11.6689 9.41409L14.2106 6.93575L10.7247 6.42909C10.5918 6.40963 10.4655 6.35832 10.3567 6.27953C10.2479 6.20074 10.1597 6.09681 10.0997 5.97659L8.50057 2.77992Z" fill="#0681C8"/>
</svg>
