<svg width="34" height="20" viewBox="0 0 34 20" fill="none" xmlns="http://www.w3.org/2000/svg">
<path d="M32.9647 1.42512C33.198 0.650121 32.9647 0.0817871 31.8613 0.0817871H28.2063C27.2763 0.0817871 26.8513 0.573454 26.618 1.11345C26.618 1.11345 24.7597 5.64512 22.1263 8.58345C21.2763 9.43845 20.888 9.70845 20.4247 9.70845C20.193 9.70845 19.8563 9.43845 19.8563 8.66345V1.42512C19.8563 0.495121 19.588 0.0817871 18.813 0.0817871H13.0697C12.4897 0.0817871 12.1397 0.511787 12.1397 0.921787C12.1397 1.80179 13.4563 2.00512 13.5913 4.48512V9.86512C13.5913 11.0435 13.3797 11.2585 12.913 11.2585C11.6747 11.2585 8.66134 6.71012 6.87301 1.50345C6.52467 0.491787 6.17301 0.0834544 5.23967 0.0834544H1.58634C0.541341 0.0834544 0.333008 0.575121 0.333008 1.11512C0.333008 2.08512 1.57134 6.88512 6.10134 13.2335C9.12134 17.5685 13.373 19.9185 17.2463 19.9185C19.568 19.9185 19.8547 19.3968 19.8547 18.4968V15.2201C19.8547 14.1768 20.0763 13.9668 20.8113 13.9668C21.3513 13.9668 22.2813 14.2401 24.4497 16.3285C26.9263 18.8051 27.3363 19.9168 28.728 19.9168H32.3813C33.4247 19.9168 33.9463 19.3951 33.6463 18.3651C33.318 17.3401 32.1347 15.8485 30.5647 14.0835C29.7113 13.0768 28.4363 11.9935 28.048 11.4518C27.5063 10.7535 27.663 10.4451 28.048 9.82512C28.0497 9.82679 32.5013 3.55679 32.9647 1.42512Z" fill="#060C2D"/>
</svg>
