<svg width="26" height="26" viewBox="0 0 26 26" fill="none" xmlns="http://www.w3.org/2000/svg">
<path d="M18.725 15.482C18.4117 15.3234 16.8859 14.5789 16.6008 14.4727C16.3156 14.3711 16.1086 14.318 15.9008 14.6312C15.6977 14.9367 15.0992 15.6359 14.9164 15.8398C14.7336 16.0438 14.5539 16.0594 14.2453 15.9211C13.932 15.7625 12.9312 15.4367 11.743 14.3711C10.8148 13.5453 10.1969 12.5281 10.0133 12.2148C9.83047 11.9055 9.99297 11.7305 10.1477 11.5758C10.2898 11.4336 10.4609 11.218 10.6195 11.0305C10.7703 10.843 10.8187 10.7172 10.9289 10.5141C11.0305 10.2945 10.9781 10.1234 10.9008 9.96875C10.8234 9.81406 10.2008 8.28047 9.94062 7.66953C9.69219 7.06328 9.43203 7.14062 9.24062 7.14062C9.06172 7.12422 8.85391 7.12422 8.64688 7.12422C8.43984 7.12422 8.10156 7.20156 7.81641 7.49844C7.53125 7.81172 6.72578 8.56016 6.72578 10.0742C6.72578 11.5922 7.84062 13.0609 7.99531 13.2805C8.15391 13.4836 10.1883 16.6086 13.3094 17.9516C14.0539 18.2648 14.632 18.4523 15.0836 18.607C15.8281 18.843 16.5078 18.8102 17.0445 18.7328C17.6383 18.6352 18.8836 17.9797 19.1445 17.2477C19.4094 16.5109 19.4094 15.9008 19.332 15.7625C19.2547 15.6203 19.0516 15.543 18.7383 15.4047L18.725 15.482ZM13.0648 23.1562H13.0484C11.2008 23.1562 9.37422 22.6555 7.77891 21.7195L7.40469 21.4961L3.49844 22.5133L4.54844 18.7125L4.29609 18.3219C3.26442 16.6815 2.71711 14.7831 2.71719 12.8453C2.71719 7.17344 7.36016 2.54687 13.0727 2.54687C15.8398 2.54687 18.4359 3.625 20.3891 5.57812C21.3526 6.53015 22.1168 7.66452 22.6373 8.91505C23.1577 10.1656 23.4239 11.5072 23.4203 12.8617C23.4125 18.5297 18.7734 23.1562 13.0687 23.1562H13.0648ZM21.8742 4.09297C19.4977 1.79766 16.3727 0.5 13.0484 0.5C6.19219 0.5 0.609375 6.05859 0.605469 12.8898C0.605469 15.0711 1.175 17.1992 2.26562 19.0828L0.5 25.5L7.1 23.7789C8.92837 24.7647 10.9721 25.2832 13.0492 25.2883H13.0531C19.9133 25.2883 25.4961 19.7297 25.5 12.8938C25.5 9.58594 24.2102 6.47266 21.8586 4.13281L21.8742 4.09297Z" fill="#9E9E9E"/>
</svg>
